PathFileType	4	(X/Y/Z)	C:/Users/opensim2020/Desktop/walking_exp_matlab/subject02_walking11_straight_03.trc	
DataRate	CameraRate	NumFrames	NumMarkers	Units	OrigDataRate	OrigDataStartFrame	OrigNumFrames	
100.00	100.00	6	42	mm	100.00	2536	250	
Frame#	Time	LFHD			RFHD			LBHD			RBHD			C7			T10			CLAV			STRN			RBAK			LSHO			LUPA			LELB			LFRM			LWRA			LWRB			LFIN			RSHO			RUPA			RELB			RFRM			RWRA			RWRB			RFIN			LASI			RASI			LPSI			RPSI			LTHI			LKNE			LTIB			LANK			LHEE			LTOE			RTHI			RKNE			RTIB			RANK			RHEE			RTOE			*39			*40			*41			
		X1	Y1	Z1	X2	Y2	Z2	X3	Y3	Z3	X4	Y4	Z4	X5	Y5	Z5	X6	Y6	Z6	X7	Y7	Z7	X8	Y8	Z8	X9	Y9	Z9	X10	Y10	Z10	X11	Y11	Z11	X12	Y12	Z12	X13	Y13	Z13	X14	Y14	Z14	X15	Y15	Z15	X16	Y16	Z16	X17	Y17	Z17	X18	Y18	Z18	X19	Y19	Z19	X20	Y20	Z20	X21	Y21	Z21	X22	Y22	Z22	X23	Y23	Z23	X24	Y24	Z24	X25	Y25	Z25	X26	Y26	Z26	X27	Y27	Z27	X28	Y28	Z28	X29	Y29	Z29	X30	Y30	Z30	X31	Y31	Z31	X32	Y32	Z32	X33	Y33	Z33	X34	Y34	Z34	X35	Y35	Z35	X36	Y36	Z36	X37	Y37	Z37	X38	Y38	Z38	X39	Y39	Z39	X40	Y40	Z40	X41	Y41	Z41	X42	Y42	Z42	

157	1.560	1454.82556	309.27243	1752.96680	1598.37878	314.84583	1738.95313	1449.67151	207.40862	1641.90198	1591.67603	201.73167	1622.24768	1517.11646	178.18922	1521.16663	1517.38391	122.11874	1247.69873	1506.35010	315.84787	1454.10327	1508.86255	365.56558	1279.57288	1574.92200	118.19499	1348.84729	1336.81763	255.54793	1504.57007	1251.07471	246.33583	1306.64404	1237.52539	244.11995	1163.97449	1225.68188	272.40213	1033.44458	1256.87036	349.48462	920.08209	1224.49109	303.61377	913.76605	1223.36523	333.89877	853.73669	1703.55103	254.39572	1478.79785	1779.87329	220.14801	1284.02100	1794.54187	232.81880	1139.13904	1820.90100	257.79221	1024.40173	1815.33545	310.00159	897.66638	1835.88245	257.12363	894.53888	1849.13074	293.04877	832.57697	1376.06958	348.05707	981.14325	1630.04163	367.80115	979.57129	1471.15771	144.73174	1025.09619	1586.98743	148.18010	1030.42358	1308.40234	279.38965	672.34644	1316.86792	252.97482	487.33496	1330.00085	103.74320	374.97430	1354.89172	-25.03880	193.49664	1416.03882	-53.71849	182.08311	1299.77856	53.73096	70.43035	1699.08276	333.39026	676.59662	1653.05469	355.80060	468.77612	1655.19055	323.03882	281.80624	1611.72949	310.06195	90.91769	1555.67578	276.87891	38.36273	1629.49304	462.87030	38.41762	1544.00146	192.28543	1785.72388						 
158	1.570	1456.50208	317.05560	1754.33069	1600.02869	322.78986	1740.29956	1451.39063	215.33247	1643.14868	1593.11560	209.60291	1623.40881	1519.16162	186.25577	1522.78540	1520.04675	129.39828	1249.34167	1507.85425	323.64954	1455.24255	1510.28821	372.99792	1280.53650	1577.73340	125.96793	1350.82715	1338.43494	262.84399	1505.50403	1253.46423	252.44962	1307.27246	1240.43762	248.82262	1164.73511	1228.43542	274.99329	1033.88770	1259.23889	349.63510	918.63104	1226.78101	303.61090	913.49091	1226.18213	332.21149	852.51538	1705.43250	263.53815	1480.40002	1782.06299	229.66885	1285.27344	1796.78027	242.92352	1140.31213	1823.08069	269.49008	1025.92175	1817.08289	323.12463	899.92871	1838.01233	270.64993	896.24542	1851.06042	307.30630	834.77234	1376.78210	354.83316	982.54956	1631.76050	374.83865	980.29980	1473.62256	151.50972	1026.56714	1589.23511	155.22154	1031.83765	1309.32178	291.17224	674.19922	1317.83398	268.01535	489.04398	1332.94775	120.10273	375.48837	1357.96790	-6.55830	192.47293	1419.27478	-34.46771	179.61716	1301.05725	74.96490	71.92746	1700.02502	337.82373	676.70050	1653.59229	356.81384	468.48734	1655.51917	322.81961	281.96341	1611.64014	310.07944	90.97630	1555.59924	277.13150	38.32098	1629.50610	462.88171	38.37239	1546.05408	200.21094	1787.13647						 
159	1.580	1458.12463	325.02310	1755.59644	1601.53931	330.71848	1741.50037	1453.04688	223.23759	1644.32861	1594.69653	217.55438	1624.58765	1521.13025	193.95958	1524.22095	1522.61682	136.61360	1250.99377	1509.26379	331.45267	1456.27686	1511.62573	380.37442	1281.45679	1580.81812	133.81801	1352.94043	1340.06787	270.11594	1506.35229	1255.65210	258.26663	1307.80994	1242.92798	253.05894	1165.44653	1230.72791	276.83575	1034.20947	1261.31738	349.86014	917.46997	1228.96191	303.58072	913.44720	1228.71509	330.59799	851.44000	1706.84106	272.39224	1481.78845	1784.65063	239.57632	1286.87231	1799.20483	253.24139	1141.70764	1824.97595	281.10059	1027.33655	1818.81323	336.49194	902.40601	1839.83740	284.09082	897.84344	1852.80640	321.71378	837.04187	1377.80249	361.40741	983.99023	1633.38159	381.65332	981.14392	1475.89478	158.13428	1028.09399	1591.27271	162.21587	1033.03918	1310.34753	302.49344	676.26685	1318.88501	282.72528	490.72528	1335.67358	136.63019	375.37378	1361.01733	13.56016	189.79526	1422.33862	-14.40056	176.19469	1302.48010	96.93362	72.27946	1700.56213	341.29962	676.57928	1654.41370	358.13281	468.59097	1655.87866	322.97931	282.02704	1611.62573	310.12671	91.03818	1555.54712	276.41028	39.10668	1629.54114	462.86148	38.33585	1547.43469	207.93015	1788.20203						 
160	1.590	1459.64734	332.88107	1756.77917	1602.96777	338.57571	1742.62097	1454.50134	231.07265	1645.41309	1596.13025	225.45726	1625.65112	1522.96643	201.77272	1525.46326	1525.11108	143.78018	1252.55493	1510.64697	339.23386	1457.19373	1513.06677	387.66904	1282.28931	1583.53503	141.39247	1354.74512	1341.67468	277.40549	1507.12939	1257.82056	264.12042	1308.36743	1245.45825	257.43469	1166.21729	1232.94958	279.37469	1034.67822	1263.18530	350.86609	916.75037	1230.83264	303.54779	913.44794	1230.93091	329.10995	850.57794	1708.56494	281.52670	1483.24231	1786.91162	249.46896	1288.33044	1801.78760	263.85654	1143.27759	1827.15381	293.19363	1029.19800	1820.22571	349.87399	904.76520	1841.54175	297.65930	899.52545	1854.55298	336.41367	839.44073	1378.92407	368.08624	985.56195	1635.00903	388.28140	982.05615	1477.87415	164.82117	1029.52039	1593.06323	169.00832	1034.12524	1311.38416	313.74329	678.20532	1319.98242	297.05219	492.29578	1338.15833	153.09959	374.67850	1363.94385	33.77270	186.62160	1425.35315	6.40901	171.97920	1304.10168	119.86367	72.04738	1701.54041	344.71997	677.08325	1655.01514	359.29593	468.51797	1656.30823	323.53717	282.09222	1611.66223	310.18948	91.11108	1555.35938	276.55826	39.07188	1629.59216	462.84085	38.30147	1549.16711	215.87599	1789.40283						 
161	1.600	1460.84607	340.50589	1757.61304	1604.33801	346.43832	1743.66541	1455.57056	238.86189	1646.19836	1597.81299	233.49304	1626.74963	1524.75122	209.78342	1526.66235	1527.54053	150.83911	1254.15381	1512.00537	346.96426	1457.98828	1514.52856	394.86844	1282.97119	1586.09753	148.97583	1356.50244	1343.17908	284.65582	1507.78882	1259.91699	269.73984	1309.04456	1247.87256	261.76624	1167.04004	1235.04907	281.59366	1035.42151	1264.92712	350.52908	915.58936	1232.47461	303.51651	913.44983	1232.91650	327.62927	849.93848	1709.85071	290.18542	1484.66431	1788.89368	259.21646	1289.71521	1803.82642	274.27255	1144.68787	1828.84534	305.35208	1030.88196	1821.43823	363.17963	907.22937	1842.92944	311.11432	901.09460	1855.97375	350.95029	841.80957	1380.26794	374.84781	987.20471	1636.65186	394.74738	982.96204	1479.49341	171.52489	1030.83105	1594.62317	175.71327	1035.06299	1312.30554	324.53104	680.02423	1321.10583	311.17130	493.79617	1340.25342	169.61177	373.26974	1366.75708	54.65580	182.50327	1428.21887	27.83489	166.84825	1305.79895	143.56834	71.19814	1702.15295	347.54800	677.21423	1655.23096	360.13025	468.03705	1656.65186	324.34375	282.15134	1611.68591	310.31546	91.15973	1555.22339	276.63281	39.11486	1629.68164	462.75974	38.30216	1550.50671	223.65498	1790.36182	-3356.81201	2845.83154	1034.17578			 
162	1.610	1462.12354	348.35150	1758.53760	1605.56616	354.24625	1744.58313	1457.11401	246.69977	1647.20264	1598.81458	241.08643	1627.58899	1526.42664	217.46362	1527.73523	1529.80298	157.93449	1255.49622	1513.30579	354.64044	1458.72681	1515.86987	401.96481	1283.58167	1588.57886	156.54715	1358.06470	1344.70789	291.85065	1508.39563	1261.54456	274.88834	1309.54504	1250.01550	266.09866	1167.75159	1237.04065	283.37427	1036.01343	1266.41553	350.41684	914.70740	1233.90369	303.26099	913.57611	1234.69958	326.30978	849.55084	1711.29309	298.98795	1486.12415	1791.05029	269.45361	1291.31189	1806.35925	285.05917	1146.36963	1830.56824	317.52490	1032.59753	1822.57263	376.71155	909.70844	1844.67310	325.08765	903.06299	1857.48950	365.82712	844.43640	1381.81958	381.68866	989.05481	1638.26819	401.09137	983.81982	1480.81177	178.21812	1032.06812	1595.93152	182.32417	1035.82642	1313.28455	334.86383	682.00610	1322.37073	324.96967	495.17780	1342.04321	186.21471	371.32129	1369.45667	76.11519	177.77066	1431.00964	50.06927	161.14211	1307.82947	168.86871	69.74000	1702.42578	350.59869	677.04645	1656.04932	361.40851	468.19199	1656.93567	325.16632	282.15433	1611.83447	310.45248	91.36612	1555.27002	276.44742	39.28815	1629.79675	462.70316	38.27245	1551.48547	231.27180	1791.36108						 
